<?xml version="1.0" encoding="iso-8859-1"?>
<svg height="478pt" viewBox="-63 0 478 478.83344" width="478pt" xmlns="http://www.w3.org/2000/svg" fill="#a4b0be">
  <path d="m43.796875 397.449219c-.535156-.296875-.992187-.761719-1.496094-1.105469l-40.863281 70.488281c-1.359375 2.496094-1.359375 5.507813 0 8 1.433594 2.488281 4.089844 4.011719 6.960938 4h71.519531c2.761719.007813 5.335937-1.414062 6.800781-3.757812l24-38.703125zm0 0" />
  <path d="m77.683594 242.035156-23.6875 41.277344c-2.171875 3.824219-.847656 8.683594 2.960937 10.882812 13.039063 7.597657 12.878907 41.679688-8.320312 78.398438-1.886719 3.28125-1.179688 7.441406 1.679687 9.917969.371094.390625.804688.714843 1.28125.960937l12.480469 7.28125 41.277344 24 13.839843 8 1.203126.71875c1.238281.722656 2.644531 1.109375 4.078124 1.121094.675782 0 1.34375-.082031 2-.242188 2.0625-.550781 3.820313-1.902343 4.878907-3.757812 14-24.320312 33.601562-42.878906 49.921875-47.199219 4.351562-1.53125 9.140625-1.246093 13.28125.800781 1.832031 1.074219 4.015625 1.390626 6.078125.878907 2.0625-.550781 3.820312-1.90625 4.878906-3.761719l23.738281-41.34375zm0 0" />
  <path d="m324.558594 24.832031-29.042969-16.878906c-27.160156-15.769531-61.917969-7.421875-78.957031 18.960937l-130.175782 201.6875 150.140626 87.097657 109.792968-217.027344c13.421875-26.492187 3.886719-58.855469-21.757812-73.839844zm-73.601563 15.488281-106.25 169.199219c-2.367187 3.695313-7.269531 4.789063-10.984375 2.457031-3.714844-2.332031-4.859375-7.21875-2.566406-10.960937l106.242188-169.199219c2.410156-3.585937 7.234374-4.613281 10.894531-2.3125 3.660156 2.296875 4.832031 7.085938 2.648437 10.816406zm0 0" />
</svg>